<?xml version="1.0" encoding="UTF-8"?>
<svg id="Layer_1" data-name="Layer 1" xmlns="http://www.w3.org/2000/svg" viewBox="0 0 500 200">
  <defs>
    <style>
      .cls-1 {
        fill: #d8cdbc;
      }

      .cls-2 {
        fill: #534741;
      }

      .cls-3 {
        stroke-width: 1.5px;
      }

      .cls-3, .cls-4 {
        fill: none;
        stroke: #8d7350;
        stroke-miterlimit: 10;
      }

      .cls-4 {
        stroke-width: 1.5px;
      }

      .cls-5 {
        fill: #aa9b80;
      }
    </style>
  </defs>
  <g>
    <g>
      <path class="cls-2" d="M157.27,180.66h-5.64l-.59-.59c-.65.34-1.38.57-2.19.7-.82.17-1.78.26-2.88.26-3.29,0-5.71-.83-7.26-2.48-1.56-1.64-2.35-4.19-2.35-7.64s.78-5.97,2.35-7.61c1.55-1.63,3.97-2.45,7.26-2.45s5.68.83,7.26,2.48c1.57,1.68,2.36,4.21,2.36,7.59,0,1.36-.13,2.58-.38,3.67-.26,1.13-.64,2.08-1.15,2.84l3.21,3.22ZM150.67,170.92c0-2.14-.38-3.71-1.15-4.73-.76-.99-1.95-1.49-3.56-1.49s-2.74.51-3.52,1.52c-.78,1.01-1.17,2.58-1.17,4.7s.38,3.73,1.15,4.72c.76,1,1.95,1.49,3.54,1.49s2.74-.51,3.53-1.52c.78-.99,1.17-2.55,1.17-4.69Z"/>
      <path class="cls-2" d="M180.96,172.89c0,.66-.03,1.24-.08,1.75-.05.51-.12,1-.21,1.48-.18.9-.49,1.57-.91,2.03-.76.92-1.73,1.6-2.91,2.04-1.17.44-2.62.66-4.33.66s-3.15-.21-4.3-.64c-1.17-.43-2.17-1.12-2.98-2.06-.39-.54-.66-1.2-.82-1.98-.18-.78-.27-1.88-.27-3.28v-11.69h4.54v11.59c0,1.64.28,2.79.83,3.44.58.63,1.59.95,3.01.95s2.43-.32,3.02-.95c.56-.65.85-1.8.85-3.44v-11.59h4.56v11.69Z"/>
      <path class="cls-2" d="M208.97,180.67h-5.12l-1.71-4.47h-7.61l-1.65,4.47h-4.91l8.15-19.47h4.64l8.22,19.47ZM200.59,172.18l-2.32-5.93-2.22,5.93h4.54Z"/>
      <path class="cls-2" d="M233.08,180.67h-5.07l-7.48-13.27.16,13.27h-4.64v-19.47h5.47l7.05,12.55-.16-12.55h4.67v19.47Z"/>
      <path class="cls-2" d="M259.44,180.66h-8.76c-.78,0-1.47-.03-2.07-.1-.63-.07-1.16-.17-1.6-.3-.84-.28-1.66-.72-2.44-1.33-.99-.83-1.73-1.88-2.22-3.14-.5-1.27-.74-2.78-.74-4.52,0-3.41.75-5.95,2.24-7.6,1.48-1.64,3.75-2.46,6.83-2.46h8.76v3.9h-8.76c-1.38,0-2.4.46-3.06,1.38s-.99,2.45-.99,4.61c0,1.95.32,3.36.96,4.23.64.86,1.67,1.3,3.1,1.3h4.08v-3.77h-5.23v-3.98h9.9v11.79Z"/>
      <path class="cls-2" d="M299.86,161.2l-8.03,19.47h-4.51l-8.37-19.47h5.16l5.34,13.4,5.5-13.4h4.9Z"/>
      <path class="cls-2" d="M311.43,180.67h-4.76v-19.47h4.76v19.47Z"/>
      <path class="cls-2" d="M338.29,180.67h-5.07l-7.48-13.27.16,13.27h-4.64v-19.47h5.47l7.05,12.55-.16-12.55h4.67v19.47Z"/>
      <path class="cls-2" d="M363.64,180.67h-4.56v-7.86h-6.52v7.86h-4.56v-19.47h4.56v7.64h6.52v-7.64h4.56v19.47Z"/>
    </g>
    <g>
      <path class="cls-2" d="M149.8,198.66h-5.49v-4.9h2.55v2.88h2.94c1.41,0,2.42-.75,2.42-1.88s-1.05-1.91-2.42-1.91h-5.49l1.62-2.04h3.87c2.87,0,4.93,1.59,4.93,3.85s-2.09,4-4.93,4Z"/>
      <path class="cls-2" d="M165.53,196.64l-1.63,2.02h-7.89v-7.86h9.49l-1.64,2.04h-5.3v.94h6.49l-1.46,1.79h-5.03v1.07h6.97Z"/>
      <path class="cls-2" d="M173.99,193.94c2,0,3.07.72,3.07,2.15,0,1.61-1.02,2.57-3.51,2.57h-7.63l1.63-2.02h6.2c.6,0,.87-.16.87-.58s-.27-.56-.87-.56h-4.46c-2.11,0-3.07-.9-3.07-2.25,0-1.48,1.03-2.44,3.51-2.44h7.11l-1.63,2.04h-5.68c-.59,0-.87.14-.87.54s.28.55.87.55h4.46Z"/>
      <path class="cls-2" d="M180.76,198.66h-2.53v-7.86h2.53v7.86Z"/>
      <path class="cls-2" d="M187.39,193.75h5.24v4.91h-5.62c-2.84,0-4.93-1.73-4.93-4s2.09-3.85,4.93-3.85h5.87l-1.64,2.04h-4.22c-1.37,0-2.41.8-2.41,1.91s1,1.88,2.41,1.88h3.1v-1.14h-4.24l1.52-1.75Z"/>
      <path class="cls-2" d="M201.37,198.37l-5.02-4.32v4.62h-2.3v-6.52c0-1.05.66-1.47,1.38-1.47.31,0,.61.07,1.02.42l5.02,4.32v-4.62h2.31v6.51c0,1.05-.66,1.48-1.4,1.48-.32,0-.62-.07-1.02-.42Z"/>
      <path class="cls-2" d="M218.16,198.66h-5.13c-2.58,0-3.32-.99-3.32-2.29,0-.94.56-1.55,1.29-1.75-.58-.2-1.13-.72-1.13-1.64,0-1.44,1.26-2.17,3.22-2.17h3.43l-1.63,2.04h-1.91c-.36,0-.7.12-.7.5s.33.53.7.53h6.65l-1.31,1.68h-1.35v1.08h2.8l-1.62,2.02ZM213.01,196.64h1.91v-1.08h-1.91c-.54,0-.78.19-.78.53,0,.36.24.55.78.55Z"/>
      <path class="cls-2" d="M235.76,196.64l-1.63,2.02h-4.11c-2.84,0-4.93-1.73-4.93-4s2.09-3.85,4.93-3.85h5.74l-1.63,2.04h-4.11c-1.37,0-2.4.79-2.4,1.91s1.02,1.88,2.4,1.88h5.74Z"/>
      <path class="cls-2" d="M248.36,194.73c0,2.81-2.01,4.06-5.99,4.06s-5.99-1.26-5.99-4.06,2-4.05,5.99-4.05,5.99,1.24,5.99,4.05ZM245.83,194.73c0-1.69-.92-2.01-3.46-2.01s-3.46.32-3.46,2.01.92,2.02,3.46,2.02,3.46-.33,3.46-2.02Z"/>
      <path class="cls-2" d="M256.92,198.37l-5.02-4.32v4.62h-2.3v-6.52c0-1.05.66-1.47,1.38-1.47.31,0,.61.07,1.02.42l5.02,4.32v-4.62h2.31v6.51c0,1.05-.66,1.48-1.4,1.48-.32,0-.62-.07-1.02-.42Z"/>
      <path class="cls-2" d="M268.42,193.94c2,0,3.07.72,3.07,2.15,0,1.61-1.02,2.57-3.51,2.57h-7.63l1.63-2.02h6.2c.6,0,.87-.16.87-.58s-.27-.56-.87-.56h-4.46c-2.11,0-3.07-.9-3.07-2.25,0-1.48,1.03-2.44,3.51-2.44h7.11l-1.63,2.04h-5.68c-.59,0-.87.14-.87.54s.28.55.87.55h4.46Z"/>
      <path class="cls-2" d="M282.05,190.81l-1.64,2.04h-2.93v5.81h-2.53v-5.81h-3.84l1.64-2.04h9.31Z"/>
      <path class="cls-2" d="M293.62,198.66h-3.39l-1.82-2.08h-3.89v2.08h-2.53v-4.02h7.13c.78,0,1.4-.34,1.4-.88,0-.61-.53-.92-1.4-.92h-7.13l1.65-2.04h5.27c1.86,0,4.21.56,4.21,2.81,0,1.22-.8,2.23-2.14,2.49.28.2.59.48,1.15,1.03l1.51,1.53Z"/>
      <path class="cls-2" d="M305.17,195.23c0,2.37-1.7,3.56-5.11,3.56-3.94,0-5.64-1.19-5.64-3.56v-4.43h2.52v4.43c0,1.16.51,1.54,3.12,1.54,1.95,0,2.56-.43,2.56-1.54v-4.43h2.55v4.43Z"/>
      <path class="cls-2" d="M317.01,196.64l-1.63,2.02h-4.11c-2.84,0-4.93-1.73-4.93-4s2.09-3.85,4.93-3.85h5.74l-1.63,2.04h-4.11c-1.37,0-2.4.79-2.4,1.91s1.02,1.88,2.4,1.88h5.74Z"/>
      <path class="cls-2" d="M328.07,190.81l-1.64,2.04h-2.93v5.81h-2.53v-5.81h-3.84l1.64-2.04h9.31Z"/>
      <path class="cls-2" d="M331.41,198.66h-2.53v-7.86h2.53v7.86Z"/>
      <path class="cls-2" d="M344.7,194.73c0,2.81-2.01,4.06-5.99,4.06s-5.99-1.26-5.99-4.06,2-4.05,5.99-4.05,5.99,1.24,5.99,4.05ZM342.18,194.73c0-1.69-.92-2.01-3.46-2.01s-3.46.32-3.46,2.01.92,2.02,3.46,2.02,3.46-.33,3.46-2.02Z"/>
      <path class="cls-2" d="M353.27,198.37l-5.02-4.32v4.62h-2.3v-6.52c0-1.05.66-1.47,1.38-1.47.31,0,.61.07,1.02.42l5.02,4.32v-4.62h2.31v6.51c0,1.05-.66,1.48-1.4,1.48-.32,0-.62-.07-1.02-.42Z"/>
    </g>
  </g>
  <g>
    <polygon class="cls-5" points="293.88 33.79 293.88 43.05 277.38 36.37 253.12 43.35 253.09 43.24 253.09 12.35 293.88 33.79"/>
    <polygon class="cls-5" points="252.91 64.16 252.91 122.02 228.86 133.84 228.86 60.61 229.62 60.48 252.91 64.16"/>
    <polygon class="cls-5" points="293.88 43.05 308.66 49.03 308.66 70.3 330.51 73.06 330.51 79.71 330.51 87.26 330.51 96.7 330.51 100.9 330.56 102.63 277.29 133.93 277.38 36.37 293.88 43.05"/>
    <g>
      <g>
        <polygon class="cls-1" points="277.37 36.37 277.29 133.93 252.91 122.01 252.91 64.15 229.62 60.48 228.86 60.61 207.8 64.45 207.8 56.38 221.37 52.48 253.11 43.35 277.37 36.37"/>
        <polygon class="cls-1" points="253.09 43.24 253.11 43.35 221.37 52.48 221.37 29.03 253.09 12.35 253.09 43.24"/>
        <polygon class="cls-1" points="228.86 60.61 228.86 133.84 228.83 133.9 167.72 101.65 167.72 101.63 167.72 93.82 167.72 86.22 167.76 85.9 199.77 90.84 199.77 79.56 199.77 66.69 199.64 65.92 207.8 64.45 228.86 60.61"/>
      </g>
      <g>
        <polyline class="cls-4" points="277.37 36.37 277.29 133.13 252.91 122.01 252.91 64.15 229.62 60.48 228.86 60.61 207.8 64.45 199.64 65.92 199.77 90.84 167.76 85.9 167.72 101.65 253.11 148.14 330.51 102.63 330.52 73.06 308.67 70.31 308.67 49.03 293.89 43.04 277.37 36.37 253.11 43.35 221.37 52.48 207.8 56.38 207.8 64.45"/>
        <polyline class="cls-3" points="228.86 60.61 228.86 133.08 252.91 122.01"/>
        <polyline class="cls-3" points="293.89 43.18 293.89 43.04 293.89 33.79 253.09 12.35 221.37 29.03 221.37 52.48"/>
      </g>
    </g>
    <polygon class="cls-2" points="291.04 56.81 284.4 55.44 284.4 46.53 291.04 48.87 291.04 56.81"/>
    <polygon class="cls-2" points="217.73 74.37 224.37 74.04 224.37 65.12 217.73 66.43 217.73 74.37"/>
    <polygon class="cls-2" points="212.46 83.56 219.1 84.15 219.1 76.71 212.46 77 212.46 83.56"/>
    <polygon class="cls-2" points="207.47 74.95 214.12 74.66 214.12 66.81 207.47 67.96 207.47 74.95"/>
    <polygon class="cls-2" points="301.68 59.19 295.04 57.69 295.04 50.21 301.68 52.55 301.68 59.19"/>
    <polygon class="cls-2" points="291.04 68.32 284.4 67.86 284.4 59.89 291.04 61.26 291.04 68.32"/>
    <polygon class="cls-2" points="301.68 69.23 295.04 68.82 295.04 61.94 301.68 63.3 301.68 69.23"/>
    <line class="cls-3" x1="253.09" y1="12.35" x2="253.09" y2="43.35"/>
    <polygon class="cls-2" points="221.05 26.81 253.09 9.12 294.61 32.01 252.91 1.21 221.05 26.81"/>
    <polygon class="cls-2" points="240.88 122.34 233.97 125.32 233.97 74.95 240.88 75.86 240.88 122.34"/>
    <polygon class="cls-2" points="248.61 118.74 242.59 121.44 242.59 75.99 248.61 76.81 248.61 118.74"/>
    <polygon class="cls-2" points="164.53 102.63 136.36 102.63 252.91 150.78 164.53 102.63"/>
    <polygon class="cls-2" points="335.42 102.63 363.64 102.63 252.91 150.78 335.42 102.63"/>
  </g>
</svg>